# xmcd
#
# Track frame offsets:
#	182
#	11147
#	24350
#	39610
#	48910
#	62545
#	81432
#	96192
#	109687
#	123992
#	141475
#	154775
#	169210
#	194265
#	209677
#	222365
#	235792
#	249060
#
# Disc length: 3499 seconds
#
# Revision: 24445302
# Processed by: cddbd v1.5.2PL0 Copyright (c) Steve Scherf et al.
# Submitted via: EZCDAudioConverter 8.2.1.1
#
DISCID=f90da912
DTITLE=Various Artist - Say It Loud! A Celebration Of Black Music In America 
DTITLE=[CD2]
DYEAR=2001
DGENRE=Soul, Funk, R&B, Delta Blues, Soul Jazz, Chicago Blues, Big Band
TTITLE0=The King Cole Trio - Straighten Up And Fly Right
TTITLE1=Charlie Parker's Ri Bop Boys - Ko Ko
TTITLE2=Sarah Vaughan - If You Could See Me Now
TTITLE3=Leadbelly - The Midnight Special
TTITLE4=T-Bone Walker - Call It Stormy Monday (But Tuesday Is Just As Bad)
TTITLE5=The Thelonius Monk Quartet - 'Round About Midnight
TTITLE6=Ella Fitzgerald - How High The Moon
TTITLE7=The Orioles - It's Too Soon To Know
TTITLE8=Muddy Waters - I Feel Like Going Home
TTITLE9=John Lee Hooker - Boogie Chillen'
TTITLE10=Charles Brown Trio - In The Evening When The Sun Goes Down
TTITLE11=Dinah Washington - Baby, Get Lost
TTITLE12=Louis Jordan And His Tympany Five - Saturday Night Fish Fry (Parts I 
TTITLE12=& II)
TTITLE13=Professor Longhair - Mardi Gras In New Orleans
TTITLE14=Jackie Brenston and His Delta Cats - Rocket "88"
TTITLE15=Ruth Brown - (Mama) He Treats Your Daughter Mean
TTITLE16=The Drifters - Money Honey
TTITLE17=Joe Turner And His Blues Kings - Shake, Rattle And Roll
EXTD=
EXTT0=
EXTT1=
EXTT2=
EXTT3=
EXTT4=
EXTT5=
EXTT6=
EXTT7=
EXTT8=
EXTT9=
EXTT10=
EXTT11=
EXTT12=
EXTT13=
EXTT14=
EXTT15=
EXTT16=
EXTT17=
PLAYORDER=
